<?xml version="1.0" encoding="iso-8859-1"?>
<!-- Generator: Adobe Illustrator 19.0.0, SVG Export Plug-In . SVG Version: 6.00 Build 0)  -->
<svg version="1.1" id="Capa_1" xmlns="http://www.w3.org/2000/svg" xmlns:xlink="http://www.w3.org/1999/xlink" x="0px" y="0px"
	 viewBox="0 0 410.3 410.3" style="enable-background:new 0 0 410.3 410.3;" xml:space="preserve">
<path style="fill:#FEDB41;" d="M280.85,136.9h68.3v233.4c0,22.1-17.9,40-40,40h-208c-22.1,0-40-17.9-40-40V136.9H280.85z"/>
<path style="fill:#00EFD1;" d="M280.85,215.2c-5.5,0-10-4.5-10-10v-122c0-34.9-28.3-63.2-63.2-63.2s-63.2,28.3-63.2,63.2v122
	c0,5.5-4.5,10-10,10s-10-4.5-10-10v-122c0-46,37.3-83.2,83.2-83.2s83.2,37.3,83.2,83.2v122C290.85,210.7,286.35,215.2,280.85,215.2z
	"/>
<g>
	<path style="fill:#00ACEA;" d="M123.15,279.1h74c5.5,0,10-4.5,10-10s-4.5-10-10-10h-74c-5.5,0-10,4.5-10,10
		S117.65,279.1,123.15,279.1z"/>
	<path style="fill:#00ACEA;" d="M123.15,309.1c-5.5,0-10,4.5-10,10s4.5,10,10,10h164c5.5,0,10-4.5,10-10s-4.5-10-10-10H123.15z"/>
</g>
<g>
</g>
<g>
</g>
<g>
</g>
<g>
</g>
<g>
</g>
<g>
</g>
<g>
</g>
<g>
</g>
<g>
</g>
<g>
</g>
<g>
</g>
<g>
</g>
<g>
</g>
<g>
</g>
<g>
</g>
</svg>
